<?xml version="1.0" standalone="no"?><!DOCTYPE svg PUBLIC "-//W3C//DTD SVG 1.1//EN" "http://www.w3.org/Graphics/SVG/1.1/DTD/svg11.dtd"><svg t="1550128870491" class="icon" style="" viewBox="0 0 1024 1024" version="1.1" xmlns="http://www.w3.org/2000/svg" p-id="4429" xmlns:xlink="http://www.w3.org/1999/xlink" width="32" height="32"><defs><style type="text/css"></style></defs><path d="M727.328 310.048l-180.192-117.248c-19.904-12.96-52.064-13.92-71.84-2.176L296.352 296.992c-19.776 11.744-19.648 31.776 0.256 44.736l180.192 117.248c19.904 12.96 52.064 13.92 71.84 2.176l178.976-106.4c19.744-11.744 19.616-31.776-0.288-44.704z" p-id="4430" fill="#dbdbdb"></path><path d="M891.008 282.656l-301.376-196.096c-42.016-27.36-111.744-29.44-153.92-4.32L136.352 260.16C111.232 275.104 96.512 297.952 96 322.816c-0.544 25.536 13.92 49.792 39.616 66.528l301.376 196.096c22.368 14.56 51.392 22.56 81.76 22.56 26.784 0 52.416-6.464 72.192-18.24l299.328-177.952c25.12-14.912 39.84-37.792 40.352-62.656 0.544-25.536-13.92-49.792-39.616-66.496z m-33.376 74.144l-299.328 177.952c-21.504 12.768-64.288 11.424-86.368-2.944L170.56 335.712c-8.064-5.248-10.592-10.048-10.56-11.584 0.032-1.184 2.272-4.928 9.024-8.96l299.36-177.952c9.888-5.856 24.288-9.216 39.488-9.216 17.856 0 34.944 4.448 46.848 12.192l301.408 196.096c8.032 5.216 10.56 10.016 10.528 11.52-0.032 1.216-2.24 4.96-9.024 8.992z" p-id="4431" fill="#dbdbdb"></path><path d="M856.96 544.736l-297.632 176.928c-22.56 13.408-62.624 12.064-85.664-2.944l-299.648-194.976a32 32 0 0 0-34.912 53.632l299.648 194.976c23.104 15.04 52.352 22.624 81.28 22.624 25.824 0 51.392-6.048 72-18.304l297.632-176.928a32 32 0 1 0-32.704-55.008z" p-id="4432" fill="#dbdbdb"></path><path d="M856.96 730.144l-297.632 176.928c-22.624 13.376-62.624 12.032-85.664-2.912l-299.648-195.008a32 32 0 0 0-34.912 53.632l299.648 195.008c23.072 15.008 52.32 22.592 81.248 22.592 25.824 0 51.392-6.048 72-18.304l297.632-176.928a32 32 0 1 0-32.672-55.008z" p-id="4433" fill="#dbdbdb"></path></svg>