<?xml version="1.0" standalone="no"?><!DOCTYPE svg PUBLIC "-//W3C//DTD SVG 1.1//EN" "http://www.w3.org/Graphics/SVG/1.1/DTD/svg11.dtd"><svg t="1550128921983" class="icon" style="" viewBox="0 0 1024 1024" version="1.1" xmlns="http://www.w3.org/2000/svg" p-id="5308" xmlns:xlink="http://www.w3.org/1999/xlink" width="32" height="32"><defs><style type="text/css"></style></defs><path d="M848 784a79.936 79.936 0 0 0-73.248 48h-152.384A111.68 111.68 0 0 0 544 741.216V608h192c52.928 0 96-43.072 96-96s-43.072-96-96-96H288c-52.928 0-96 43.072-96 96s43.072 96 96 96h192v133.216A111.616 111.616 0 0 0 401.632 832H249.248A79.936 79.936 0 0 0 96 864a80 80 0 0 0 153.248 32h161.984c18.048 37.696 56.256 64 100.768 64s82.72-26.304 100.768-64h161.984A79.936 79.936 0 0 0 928 864a80 80 0 0 0-80-80zM288 544a32.032 32.032 0 0 1 0-64h448a32.032 32.032 0 0 1 0 64H288z m224 352c-26.464 0-48-21.536-48-48S485.536 800 512 800s48 21.536 48 48S538.464 896 512 896z" p-id="5309" fill="#dbdbdb"></path><path d="M272 736h91.488a32 32 0 1 0 0-64H272A176.192 176.192 0 0 1 96 496a175.04 175.04 0 0 1 148.48-173.888l19.04-2.976 6.24-18.24C305.248 197.472 402.592 128 512 128a256 256 0 0 1 242.208 172.896l6.272 18.24 19.04 2.976A175.04 175.04 0 0 1 928 496c0 97.024-78.976 176-176 176h-97.28a32 32 0 1 0 0 64h97.28c132.352 0 240-107.648 240-240a238.592 238.592 0 0 0-183.808-233.408 320.16 320.16 0 0 0-592.352 0A238.592 238.592 0 0 0 32 496C32 628.352 139.648 736 272 736z" p-id="5310" fill="#dbdbdb"></path></svg>