<?xml version="1.0" encoding="UTF-8"?>
<svg width="32px" height="32px" viewBox="0 0 32 32" version="1.1" xmlns="http://www.w3.org/2000/svg" xmlns:xlink="http://www.w3.org/1999/xlink">
    <!-- Generator: Sketch 52.4 (67378) - http://www.bohemiancoding.com/sketch -->
    <title>right</title>
    <desc>Created with Sketch.</desc>
    <g id="Page-1" stroke="none" stroke-width="1" fill="none" fill-rule="evenodd">
        <g id="Desktop-HD-Copy-3" transform="translate(-776.000000, -836.000000)">
            <g id="right" transform="translate(776.000000, 836.000000)">
                <rect id="Rectangle-36-Copy-5" fill-opacity="0.01" fill="#D8D8D8" x="0" y="0" width="32" height="32"></rect>
                <g transform="translate(8.000000, 4.000000)" fill="#DBDBDB" fill-rule="nonzero" id="Shape">
                    <path d="M1.39375,23.990625 C1.69375,23.990625 1.996875,23.890625 2.25,23.690625 L15.49375,13.0375 C15.815625,12.778125 16.003125,12.3875 16.003125,11.971875 C16.003125,11.559375 15.815625,11.165625 15.49375,10.909375 L2.30625,0.3125 C1.71875,-0.159375 0.859375,-0.065625 0.3875,0.521875 C-0.084375,1.109375 0.009375,1.96875 0.596875,2.440625 L12.459375,11.975 L0.5375,21.5625 C-0.05,22.034375 -0.14375,22.89375 0.328125,23.48125 C0.6,23.815625 0.99375,23.990625 1.39375,23.990625 Z"></path>
                </g>
            </g>
        </g>
    </g>
</svg>