<?xml version="1.0" standalone="no"?><!DOCTYPE svg PUBLIC "-//W3C//DTD SVG 1.1//EN" "http://www.w3.org/Graphics/SVG/1.1/DTD/svg11.dtd"><svg t="1550219946803" class="icon" style="" viewBox="0 0 1024 1024" version="1.1" xmlns="http://www.w3.org/2000/svg" p-id="2941" xmlns:xlink="http://www.w3.org/1999/xlink" width="32" height="32"><defs><style type="text/css"></style></defs><path d="M430 735.2c-168 0-308-140-308-308s140-308 308-308 308 140 308 308-140 308-308 308zM721.2 640C766 578.4 794 505.6 794 427.2c0-201.6-162.4-364-364-364S66 225.6 66 427.2s162.4 364 364 364c78.4 0 151.2-28 212.8-67.2l218.4 218.4c22.4 22.4 56 22.4 78.4 0 22.4-22.4 22.4-56 0-78.4L721.2 640z" p-id="2942" fill="#cdcdcd"></path></svg>