<?xml version="1.0" standalone="no"?><!DOCTYPE svg PUBLIC "-//W3C//DTD SVG 1.1//EN" "http://www.w3.org/Graphics/SVG/1.1/DTD/svg11.dtd"><svg t="1550221203268" class="icon" style="" viewBox="0 0 1024 1024" version="1.1" xmlns="http://www.w3.org/2000/svg" p-id="3787" xmlns:xlink="http://www.w3.org/1999/xlink" width="32" height="32"><defs><style type="text/css"></style></defs><path d="M512 231.6l52.1 160.1c6 18.4 17.4 34.1 33.1 45.5 15.6 11.4 34.1 17.4 53.5 17.4h168.3l-136.1 98.8c-15.7 11.4-27.1 27.1-33.1 45.5-6 18.4-6 37.9 0 56.3l52 160-136.3-98.9c-15.6-11.4-34.1-17.4-53.5-17.4-19.3 0-37.8 6-53.5 17.4l-136.3 98.9 52-160c6-18.4 6-37.9 0-56.3-6-18.4-17.4-34.1-33.1-45.5l-136.1-98.8h168.3c19.3 0 37.8-6 53.5-17.4 15.7-11.4 27.1-27.1 33.1-45.5L512 231.6M512 85c-10.8 0-21.6 6.2-25.7 18.6l-87.2 268.3c-3.6 11.1-14 18.6-25.7 18.6H91.1c-26.2 0-37 33.4-15.9 48.8l228.4 165.8c9.5 6.9 13.4 19.1 9.8 30.2l-87.2 268.2c-6.2 18.9 8.9 35.4 25.8 35.4 5.3 0 10.7-1.6 15.8-5.3l228.4-165.8c4.7-3.4 10.3-5.2 15.9-5.2 5.6 0 11.1 1.7 15.9 5.2l228.4 165.8c5 3.7 10.5 5.3 15.8 5.3 16.9 0 31.9-16.5 25.8-35.4l-87.2-268.2c-3.6-11.1 0.3-23.3 9.8-30.2l228.4-165.8c21.2-15.4 10.3-48.8-15.9-48.8H650.6c-11.7 0-22.1-7.5-25.7-18.6l-87.2-268.3C533.6 91.2 522.8 85 512 85L512 85z" fill="#00c1de" p-id="3788"></path></svg>